<svg xmlns="http://www.w3.org/2000/svg" viewBox="0 0 200 200"><path d="M41.96 54.57c28.2-37.1 81.26-35.47 116.37-10.87 38.58 27.03 33.28 72.76 2.02 112.7-22.88 29.23-62.06 33.65-107.23-5.32-44.1-38-38.62-60.4-11.16-96.5z" fill="#F0F4FF"/><path d="M153.36 92.03c-.8 0-1.44-.64-1.44-1.44V72.23a2.5 2.5 0 0 1 2.5-2.5h4.6l-12.18-9.58-12.18 9.58h4.42a2.5 2.5 0 0 1 2.5 2.5V90.2c0 .8-.64 1.44-1.44 1.44a1.44 1.44 0 0 1-1.05-.46 1.27 1.27 0 0 0-.1.5v5.45c0 .8.64 1.44 1.44 1.44.7 0 1.73-.26 1.65-2.05v-2.65a1.32 1.32 0 0 1 2.64 0v9.8c0 1.02.82 1.84 1.84 1.84h.37c1.02 0 1.84-.82 1.84-1.84v-9.8a1.48 1.48 0 0 1 1.47-1.47c.8 0 1.47.66 1.47 1.47v3.4V101.3c0 .8.78 1.5 1.57 1.5.8 0 1.44-.64 1.44-1.44V91.3c0-.08-.01-.16-.02-.24a1.41 1.41 0 0 1-1.34.98l.02-.01z" fill="#fff"/><path d="M146.86 57.18c.56 0 1.1.2 1.55.54l13.25 10.42c.85.67 1.17 1.76.82 2.8-.35 1.02-1.28 1.7-2.37 1.7h-5.3V90.6c0 .8-.64 1.44-1.44 1.44s-1.44-.64-1.44-1.44V72.23a2.5 2.5 0 0 1 2.5-2.5h4.6l-12.18-9.58-12.18 9.58h4.42a2.5 2.5 0 0 1 2.5 2.5v17.97c0 .8-.64 1.44-1.44 1.44s-1.44-.64-1.44-1.44V72.6h-5.12c-1.08 0-2-.66-2.37-1.7-.35-1-.02-2.13.82-2.8l13.26-10.4c.47-.34 1.02-.52 1.57-.52l-.01-.01zm6.7 49.22c.8 0 1.44-.64 1.44-1.44V94.9c0-.8-.64-1.44-1.44-1.44s-1.44.64-1.44 1.44v10.06c.01.8.65 1.44 1.44 1.44zm-6.86 7.32c.8 0 1.44-.64 1.44-1.44v-10.83c0-.8-.64-1.44-1.44-1.44s-1.44.64-1.44 1.44v10.82c.01.8.65 1.45 1.44 1.45zm-6.5-11.92c.8 0 1.44-.64 1.44-1.44V94.9c0-.8-.64-1.44-1.44-1.44s-1.44.64-1.44 1.44v5.45a1.46 1.46 0 0 0 1.44 1.44v.01z" fill="#557CF2"/><path d="M55.74 133.56c1.18 0 2.13.95 2.13 2.13v20.6c0 2.05-1.67 3.7-3.7 3.7h-6.83l18.06 14.2L83.45 160H76.9c-2.05 0-3.7-1.67-3.7-3.7v-20.03c0-1.18.95-2.13 2.13-2.13.6 0 1.16.26 1.55.68.08-.23.14-.47.14-.72v-8.07c0-1.18-.95-2.13-2.13-2.13-1.06 0-2.56.4-2.44 3.03v3.93c0 1.08-.88 1.96-1.96 1.96s-1.96-.88-1.96-1.96v-14.5a2.73 2.73 0 0 0-2.73-2.73h-.55a2.73 2.73 0 0 0-2.73 2.73v14.5c0 1.2-.98 2.18-2.18 2.18s-2.18-.98-2.18-2.18v-5.05l.03-5.98c0-1.18-1.15-2.2-2.33-2.2s-2.13.95-2.13 2.13v14.9c0 .12.02.24.03.35a2.11 2.11 0 0 1 2-1.45h-.02z" fill="#fff"/><path d="M65.38 178.63c-.83 0-1.64-.28-2.3-.8L43.44 162.4c-1.26-.97-1.74-2.64-1.2-4.13.53-1.52 1.9-2.5 3.5-2.5h7.87V135.7c0-1.18.95-2.13 2.13-2.13s2.13.95 2.13 2.13v20.6c0 2.05-1.67 3.7-3.7 3.7h-6.83l18.06 14.2L83.45 160H76.9c-2.05 0-3.7-1.67-3.7-3.7v-20.03c0-1.18.95-2.13 2.13-2.13s2.13.95 2.13 2.13v19.48h7.6c1.6 0 2.98.98 3.5 2.5s.05 3.14-1.2 4.13L67.7 177.83c-.7.53-1.5.8-2.3.8h-.02zm-9.93-66.38c-1.18 0-2.13.95-2.13 2.13v14.9c0 1.18.95 2.13 2.13 2.13s2.13-.95 2.13-2.13v-14.9c0-1.17-.95-2.13-2.13-2.13zm10.15-10.83c-1.18 0-2.13.95-2.13 2.13v16.05c0 1.18.95 2.13 2.13 2.13s2.13-.95 2.13-2.13v-16.05c0-1.18-.95-2.13-2.13-2.13zm9.63 17.68c-1.18 0-2.13.95-2.13 2.13v8.07c0 1.18.95 2.13 2.13 2.13s2.13-.95 2.13-2.13v-8.07c.01-1.17-.94-2.12-2.1-2.13z" fill="#557CF2"/><path d="M148.25 131.83c.5.82 1.37 1.33 2.33 1.33h15.4v-2.5a2.01 2.01 0 0 0-2.01-2.01h-17.6l1.88 3.18zm-37.45-6.1c.01-3 2.45-5.46 5.46-5.48l16.46-.07-2.1-3.55c-.36-.6-1.02-1-1.73-1l-21.94.1c-1.1.01-2 .9-2 2v44a2.01 2.01 0 0 0 2.01 2.01h3.84v-38.02z" fill="#D9E2FF"/><path d="M173.3 133.16h-3.84v-2.5c-.01-3.02-2.46-5.47-5.48-5.48H144.3l-1.37-2.33c-.98-1.66-2.8-2.7-4.72-2.7h-.03l-1.44.01-3.13-5.3c-.98-1.66-2.8-2.7-4.72-2.7h-.03l-21.93.1a5.5 5.5 0 0 0-5.46 5.48v44c.01 3.02 2.46 5.47 5.48 5.48h3.84v2.5c.01 3.02 2.46 5.47 5.48 5.48h57c3.02-.01 5.47-2.46 5.48-5.48v-31.1c.01-3.03-2.43-5.5-5.46-5.5l.01.04zm-9.32-4.5a2.01 2.01 0 0 1 2.01 2.01v2.5h-15.4c-.95 0-1.85-.5-2.33-1.33l-1.88-3.18h17.6zm-53.17-2.92v38.02h-3.84a2.01 2.01 0 0 1-2.01-2.01v-44c0-1.1.9-2 2-2l21.93-.1a2.03 2.03 0 0 1 1.74.99l2.1 3.55-16.46.07c-3.02.03-5.45 2.47-5.46 5.5v-.01z" fill="#557CF2"/><path d="M138.22 123.63l-21.94.1c-1.1.01-2 .9-2 2v44a2.01 2.01 0 0 0 2.01 2.01h57a2.01 2.01 0 0 0 2.01-2.01v-31.1a2.01 2.01 0 0 0-2.01-2.01h-44.6a1.74 1.74 0 0 1 0-3.48H145l-5.05-8.54c-.36-.6-1.02-1-1.73-1v.02z" fill="#fff"/><path d="M149.28 151.52v-3.43c0-2.73-2.22-4.95-4.95-4.95s-4.95 2.22-4.95 4.95v3.42h-.05a2.6 2.6 0 0 0-2.6 2.6v7.27a2.6 2.6 0 0 0 2.6 2.6h9.75a2.6 2.6 0 0 0 2.6-2.6v-7.27c-.01-1.36-1.06-2.5-2.4-2.6zm-4.1 6.62l-.27.12v2.1a.29.29 0 0 1-.29.29h-.55a.29.29 0 0 1-.29-.29v-2.17l-.24-.13a1.83 1.83 0 0 1-.88-2.06c.16-.65.67-1.15 1.32-1.3a2.12 2.12 0 0 1 .44-.05c.4 0 .8.14 1.14.4.44.35.7.87.7 1.43.01.72-.42 1.37-1.08 1.67zm1.45-6.63h-4.5v-2.25c0-1.54 1-2.8 2.25-2.8s2.25 1.26 2.25 2.8v2.25z" fill="#557CF2"/><path d="M77.88 43.63a3.13 3.13 0 0 0 2.7 1.55h17.9v-2.9c0-1.3-1.05-2.33-2.33-2.33H75.7l2.2 3.7-.02-.02zm-43.54-7.1c0-3.5 2.85-6.36 6.35-6.37l19.14-.08-2.44-4.13c-.42-.7-1.2-1.15-2-1.15l-25.5.1c-1.28.01-2.32 1.05-2.32 2.33V78.4c0 1.3 1.05 2.33 2.33 2.33h4.46l-.02-44.2z" fill="#D9E2FF"/><path d="M107 45.18h-4.46v-2.9a6.39 6.39 0 0 0-6.37-6.37h-22.87l-1.6-2.7a6.4 6.4 0 0 0-5.5-3.13h-.03l-1.68.01-3.64-6.16a6.4 6.4 0 0 0-5.5-3.13h-.03l-25.5.1c-3.5.02-6.35 2.88-6.35 6.37v51.16a6.39 6.39 0 0 0 6.37 6.37h4.46v2.9a6.39 6.39 0 0 0 6.37 6.37h66.28a6.39 6.39 0 0 0 6.37-6.37V51.55c.03-3.5-2.83-6.37-6.35-6.37h.03zm-10.83-5.24c1.3 0 2.33 1.05 2.33 2.33v2.9H80.6a3.15 3.15 0 0 1-2.7-1.55l-2.18-3.7h20.46l-.01.02zm-61.82-3.4v44.2H29.9c-1.3 0-2.33-1.05-2.33-2.33V27.26c0-1.28 1.04-2.32 2.32-2.33l25.5-.1a2.35 2.35 0 0 1 2.02 1.15l2.44 4.13-19.14.08c-3.5.01-6.35 2.86-6.35 6.36v-.01z" fill="#557CF2"/><path d="M66.22 34.1l-25.5.1c-1.28.01-2.32 1.05-2.32 2.33V87.7c0 1.3 1.05 2.33 2.33 2.33H107c1.3 0 2.33-1.05 2.33-2.33V51.55c0-1.3-1.05-2.33-2.33-2.33H55.14c-1.12 0-2.02-.9-2.02-2.02s.9-2.02 2.02-2.02H74.1l-5.87-9.93c-.42-.7-1.2-1.15-2-1.15z" fill="#fff"/><path d="M79.08 66.53v-4c-.01-3.18-2.58-5.75-5.76-5.76-3.18.01-5.75 2.58-5.76 5.76v3.98h-.06a3.04 3.04 0 0 0-3.04 3.04V78a3.04 3.04 0 0 0 3.04 3.04h11.33a3.04 3.04 0 0 0 3.04-3.04v-8.46c0-1.6-1.23-2.9-2.8-3.03l.01.01zm-4.76 7.7l-.32.14v2.45a.33.33 0 0 1-.34.34h-.64a.33.33 0 0 1-.34-.34V74.3l-.28-.15c-.85-.47-1.26-1.43-1.03-2.4.18-.74.8-1.35 1.54-1.52a2.22 2.22 0 0 1 .51-.06 2.1 2.1 0 0 1 1.32.46c.5.4.8 1 .8 1.66.03.82-.46 1.58-1.22 1.94zm1.7-7.7H70.8V63.9c0-1.8 1.17-3.25 2.6-3.25S76 62.1 76 63.9v2.62l.02.01z" fill="#557CF2"/></svg>