<svg xmlns="http://www.w3.org/2000/svg" viewBox="0 0 200 200"><path d="M151.96 56c39.04 23.5 44.9 57.67 13.97 89.52-32.1 33.07-88.2 27.72-120.6-2.64s-34.9-58.03-10.7-95.23C65.68-.1 113.94 33.1 151.97 56H151.96z" fill="#F0F4FF"/><path d="M173.64 77.97L160.6 65.03l-1.64-1.65-1.1-6.35 4.72-4.6a4.25 4.25 0 0 0 1.08-4.37 4.22 4.22 0 0 0-3.44-2.9l-6.52-.95-2.92-5.9a4.23 4.23 0 0 0-3.82-2.38 4.22 4.22 0 0 0-3.82 2.38l-2.92 5.9-.3.04-18.95-18.95c-3.03-3.03-7.95-3.03-11 0l-11.2 12.16c-1.13 1.13-1.13 2.97 0 4.1l10.62 10.62c.7.7 1.72 1 2.7.83 2.82-.45 5.8.4 7.98 2.58 2.2 2.2 3.04 5.2 2.58 8.03-.16 1 .1 2 .82 2.72l10.87 10.87c.77.77 1.86 1.06 2.93.9 2.8-.42 5.76.44 7.9 2.6 3.6 3.6 3.6 9.46 0 13.07a3.32 3.32 0 0 1-.19.18c-3.65 3.45-9.6 3.28-13.07-.36-2.16-2.28-2.93-5.4-2.33-8.26.22-1.05-.03-2.14-.8-2.9l-10.16-10.16a.6.6 0 0 0-.85.01c-.1.1-.17.26-.17.4v29.53c0 1.02.45 2.02 1.28 2.6.4.3.8.62 1.17.98 3.6 3.6 3.6 9.46 0 13.07-3.67 3.67-9.66 3.6-13.25-.18-3.4-3.6-3.3-9.47.24-12.95a9.42 9.42 0 0 1 1.53-1.22c.9-.57 1.44-1.58 1.44-2.65V72.5c0-1.02-.5-2-1.36-2.52-.6-.38-1.17-.83-1.67-1.33-2.34-2.34-3.16-5.63-2.47-8.63.24-1.02-.13-2.08-.87-2.82L93.4 46.93c-1.13-1.13-2.97-1.13-4.1 0l-31.76 30.8c-3.03 3.04-3.03 7.96 0 11l40.03 40.03h-40.6c-3.1 0-5.6 2.52-5.6 5.6v.94a1.5 1.5 0 1 0 3 0v-.94a2.6 2.6 0 0 1 2.6-2.6h43.62l9.64 9.64c2.17 2.17 5.3 2.78 8.02 1.85v28c0 .78-.33 1.5-.9 2.03-.5.44-1.14.7-1.8.7h-58.5c-1.5 0-2.7-1.22-2.7-2.7v-19.16a1.5 1.5 0 1 0-3 0v19.16c0 3.15 2.56 5.7 5.7 5.7h58.47c1.4 0 2.75-.5 3.8-1.45a5.7 5.7 0 0 0 1.91-4.27v-29.88l52.4-52.4c3.04-3.04 3.04-7.96.02-11z" fill="#557CF2"/><path d="M115.52 131.75H56.96a2.6 2.6 0 0 0-2.6 2.6v.94a1.5 1.5 0 0 1-1.5 1.5v13.77a1.5 1.5 0 0 1 1.5 1.5v19.16c0 1.5 1.22 2.7 2.7 2.7h58.47c.67 0 1.3-.24 1.8-.7.58-.52.9-1.25.9-2.03v-36.74c0-1.5-1.22-2.7-2.7-2.7z" fill="#fff"/><g fill="#557CF2"><circle cx="92.57" cy="138.39" r="2.81"/><circle cx="101.52" cy="138.39" r="2.81"/><circle cx="110.48" cy="138.39" r="2.81"/><path d="M108.62 153.88l-1.28-1.78c-.27-.37-.66-.6-1.08-.6-3.16-.05-16.67 0-21.1.02-.57 0-1.07-.38-1.33-.96-1.62-3.65-5.1-6.17-9.13-6.17-5.58 0-10.1 4.83-10.1 10.8 0 5.96 4.52 10.8 10.1 10.8 3.88 0 7.25-2.34 8.94-5.77.26-.53.74-.87 1.27-.87h5.27c.12 0 .23-.05.3-.15l1-1.15c.17-.2.45-.2.62 0l1.05 1.2c.18.2.47.2.64-.02l1.3-1.7a.39.39 0 0 1 .58-.08l.8.64a.39.39 0 0 0 .47.02l1.25-.82c.17-.1.4-.08.53.08l1.22 1.4c.18.2.46.2.63-.01l.66-.8c.13-.18.38-.2.56-.08l.06.06.74.8c.15.17.4.18.56.04l.04-.04 1.3-1.37c.2-.2.48-.17.64.06l.44.63c.16.23.45.25.63.06l2.23-2.25a1.59 1.59 0 0 0 .17-2.01l.02.02zm-37.6 5.07c-1.7 0-3.06-1.58-3.06-3.52s1.37-3.52 3.06-3.52 3.06 1.58 3.06 3.52-1.37 3.52-3.06 3.52z"/></g><path d="M139.72 65.37l6.64-3.5c.18-.1.38-.15.6-.15s.4.05.6.15l6.64 3.5c.18.1.38.15.6.15.74 0 1.4-.66 1.25-1.48l-1.28-7.4c-.07-.4.07-.83.36-1.12l5.37-5.24a1.27 1.27 0 0 0 .01-1.8c-.2-.2-.44-.32-.7-.36l-7.42-1.08a1.25 1.25 0 0 1-.95-.7l-3.32-6.73c-.23-.47-.68-.7-1.13-.7s-.9.23-1.13.7l-3.32 6.73c-.2.37-.54.63-.95.7l-7.42 1.08c-1.04.15-1.45 1.42-.7 2.16l5.37 5.24a1.26 1.26 0 0 1 .36 1.12l-1.27 7.4c-.14.82.5 1.48 1.25 1.48.2 0 .4-.05.58-.14v-.02zM26.34 100.4c1.03 0 1.87.84 1.87 1.87v38.1a3.26 3.26 0 0 1-3.26 3.26h-6l15.85 12.46 15.85-12.46H44.9a3.26 3.26 0 0 1-3.26-3.26v-37.6c0-1.03.84-1.87 1.87-1.87.54 0 1.02.23 1.36.6.07-.2.12-.4.12-.63v-7.1c0-1.03-.84-1.87-1.87-1.87-.93 0-2.24.34-2.14 2.66V98a1.72 1.72 0 0 1-3.44 0V85.28a2.39 2.39 0 0 0-2.39-2.39h-.48a2.39 2.39 0 0 0-2.39 2.39V98a1.91 1.91 0 1 1-3.82 0v-4.43l.03-5.25c0-1.03-1-1.94-2.05-1.94-1.03-.01-1.86.82-1.87 1.85v13.12c0 .1.01.2.03.3.22-.73.9-1.27 1.74-1.27z" fill="#fff"/><path d="M34.8 159.95c-.7 0-1.42-.23-2-.7L15.54 145.7a3.24 3.24 0 0 1-1.07-3.63c.46-1.33 1.67-2.2 3.08-2.2h6.9v-37.6c0-1.03.84-1.87 1.87-1.87s1.87.84 1.87 1.87v38.1a3.26 3.26 0 0 1-3.26 3.26h-6l15.85 12.46 15.85-12.46h-5.75a3.26 3.26 0 0 1-3.26-3.26v-37.6c0-1.03.84-1.87 1.87-1.87s1.87.84 1.87 1.87v37.1h6.67c1.4 0 2.62.86 3.08 2.2a3.21 3.21 0 0 1-1.07 3.63L36.8 159.25c-.57.45-1.27.7-2 .7zM26.08 81.7c-1.03 0-1.87.84-1.87 1.87v13.1c0 1.03.84 1.87 1.87 1.87s1.87-.84 1.87-1.87v-13.1c0-1.03-.84-1.87-1.87-1.87v.01zM35 72.2c-1.03 0-1.87.84-1.87 1.87v14.1c0 1.03.84 1.87 1.87 1.87s1.87-.84 1.87-1.87v-14.1c0-1.03-.84-1.87-1.87-1.87v.01zm8.44 15.5c-1.03 0-1.87.84-1.87 1.87v7.1c0 1.03.84 1.87 1.87 1.87s1.87-.84 1.87-1.87v-7.1c0-1.03-.83-1.87-1.87-1.87z" fill="#557CF2"/></svg>