<svg xmlns="http://www.w3.org/2000/svg" viewBox="0 0 200 200"><path d="M166.8 89.63c13.84 46.47 2.78 69.5-28.75 76.4-43.33 9.47-86.64-3.92-107.23-41.36C13.96 94.03 12.7 62.1 49.96 41.17c47.8-26.82 102.64.77 116.84 48.46z" fill="#F0F4FF"/><path d="M49.8 149.92c-1.03 0-1.87-.84-1.87-1.87v-37.57a3.26 3.26 0 0 1 3.26-3.26h5.75L41.1 94.75 25.25 107.2h6a3.26 3.26 0 0 1 3.26 3.26v38.08c0 1.03-.84 1.87-1.87 1.87-.82 0-1.52-.54-1.77-1.28-.02.1-.03.2-.03.3v13.1c0 1.03.84 1.87 1.87 1.87s2.05-.9 2.05-1.94l-.03-5.25v-4.43a1.91 1.91 0 0 1 1.91-1.91c1.06 0 1.9.85 1.9 1.9v12.73a2.39 2.39 0 0 0 2.39 2.39h.48a2.39 2.39 0 0 0 2.39-2.39v-12.72a1.72 1.72 0 0 1 3.44 0v3.45c-.1 2.32 1.22 2.66 2.14 2.66 1.03 0 1.87-.84 1.87-1.87v-7.1c0-.22-.05-.44-.12-.63-.3.37-.8.6-1.34.6v.02z" fill="#fff"/><path d="M32.64 150.43c-1.03 0-1.87-.84-1.87-1.87v-37.6h-6.9c-1.4 0-2.62-.86-3.08-2.2a3.21 3.21 0 0 1 1.07-3.63L39.1 91.6a3.26 3.26 0 0 1 4.03 0l17.24 13.56a3.21 3.21 0 0 1 1.07 3.63c-.46 1.34-1.67 2.2-3.08 2.2H51.7v37.1c0 1.03-.84 1.87-1.87 1.87s-1.87-.84-1.87-1.87v-37.6a3.26 3.26 0 0 1 3.26-3.26h5.75L41.1 94.75 25.25 107.2h6a3.26 3.26 0 0 1 3.26 3.26v38.08a1.89 1.89 0 0 1-1.87 1.89zm-.26 18.7c-1.03 0-1.87-.84-1.87-1.87v-13.1c0-1.03.84-1.87 1.87-1.87s1.87.84 1.87 1.87v13.1c0 1.03-.83 1.87-1.87 1.87zm8.92 9.5c-1.03 0-1.87-.84-1.87-1.87v-14.1c0-1.03.84-1.87 1.87-1.87s1.87.84 1.87 1.87v14.1c0 1.03-.84 1.87-1.87 1.87zm8.45-15.5c-1.03 0-1.87-.84-1.87-1.87v-7.1c0-1.03.84-1.87 1.87-1.87s1.87.84 1.87 1.87v7.1c0 1.03-.84 1.87-1.87 1.87zM177.2 78.6l-13.04-12.94-21.9-22-17.72-17.72c-3.03-3.03-7.95-3.03-11 0l-11.2 12.16c-1.13 1.13-1.13 2.97 0 4.1l10.62 10.62c.7.7 1.72 1 2.7.83 2.92-.47 5.9.5 7.98 2.58a9.25 9.25 0 0 1 2.58 8.03c-.16 1 .1 2 .82 2.72l10.87 10.87c.77.77 1.86 1.06 2.93.9 2.8-.42 5.76.44 7.9 2.6 3.6 3.6 3.6 9.46 0 13.07a3.32 3.32 0 0 1-.19.18c-3.65 3.45-9.6 3.28-13.07-.36-2.1-2.2-2.96-5.3-2.33-8.26.22-1.05-.03-2.14-.8-2.9L122.2 72.9c-.23-.23-.6-.24-.84-.01-.1.1-.18.27-.18.43v29.53c0 1.02.45 2.02 1.28 2.6.4.3.8.62 1.17.98 3.6 3.6 3.6 9.46 0 13.07-3.67 3.67-9.66 3.6-13.25-.18-3.4-3.6-3.3-9.47.24-12.95a9.42 9.42 0 0 1 1.53-1.22c.9-.57 1.44-1.58 1.44-2.65V73.14c0-1.02-.5-2-1.36-2.52-.6-.38-1.17-.83-1.67-1.33a9.25 9.25 0 0 1-2.47-8.63c.24-1.02-.13-2.08-.87-2.82L96.96 47.57c-1.13-1.13-2.97-1.13-4.1 0L61.1 78.36c-3.03 3.04-3.03 7.96 0 11l41.95 41.95h-43.5a3.75 3.75 0 0 0-3.75 3.75v38.73c0 3.15 2.56 5.7 5.7 5.7h58.47c.1 0 .2 0 .3-.01a5.72 5.72 0 0 0 5.41-5.71v-32.7l51.5-51.5c3.03-3.02 3.03-7.94 0-10.97h.02zm-57.07 97.88H61.5c-1.5 0-2.7-1.22-2.7-2.7v-38.73c0-.4.34-.75.75-.75h46.52l7.7 7.7c2.35 2.34 5.92 2.94 8.9 1.48v30.3a2.69 2.69 0 0 1-2.57 2.7h.03z" fill="#557CF2"/><path d="M61.5 176.5h58.6a2.72 2.72 0 0 0 2.57-2.71v-36.77c0-1.5-1.22-2.7-2.7-2.7H59.55c-.4 0-.75.34-.75.75v38.73a2.69 2.69 0 0 0 2.7 2.7z" fill="#fff"/><g fill="#557CF2"><path d="M81.16 154.33h-14c-.92 0-1.66-.74-1.66-1.66s.74-1.66 1.66-1.66h14c.92 0 1.66.74 1.66 1.66s-.75 1.66-1.66 1.66zm33.33 8.04H67.16c-.92 0-1.66-.74-1.66-1.66s.74-1.66 1.66-1.66h47.34c.92 0 1.66.74 1.66 1.66a1.67 1.67 0 0 1-1.67 1.66zm-17.23 8.04h-30.1c-.92 0-1.66-.74-1.66-1.66s.74-1.66 1.66-1.66h30.1c.92 0 1.66.74 1.66 1.66s-.75 1.66-1.66 1.66zm17.44-16.08H87.3c-.92 0-1.66-.74-1.66-1.66s.74-1.66 1.66-1.66h27.4c.92 0 1.66.74 1.66 1.66s-.75 1.66-1.67 1.66h.01z"/><circle cx="67.52" cy="141.44" r="2.81"/><circle cx="76.48" cy="141.44" r="2.81"/><circle cx="85.44" cy="141.44" r="2.81"/></g></svg>