<svg xmlns="http://www.w3.org/2000/svg" viewBox="0 0 200 200"><path d="M142.3 64.04c35.52 21.4 40.84 52.48 12.7 81.46-34.33 35.37-75.14 30.03-109.73-2.4-29.47-27.62-31.75-52.8-9.74-86.66 28.24-43.46 72.16-13.24 106.76 7.6h.01z" fill="#F0F4FF"/><path d="M83 90.23c-1.18 0-2.3-.47-3.14-1.3l-30.4-30.4a4.4 4.4 0 0 1-1.3-3.14 4.4 4.4 0 0 1 1.3-3.14l22.87-22.9a4.4 4.4 0 0 1 3.14-1.3 4.4 4.4 0 0 1 3.14 1.3l30.4 30.4c1.73 1.73 1.73 4.54 0 6.27l-22.9 22.9c-.84.84-1.95 1.3-3.13 1.3H83z" fill="#fff"/><path d="M46.97 55.38a5.55 5.55 0 0 0 1.64 3.96l30.42 30.42C80.1 90.82 81.5 91.4 83 91.4s2.9-.58 3.96-1.64l22.88-22.88a5.55 5.55 0 0 0 1.64-3.96 5.55 5.55 0 0 0-1.64-3.96l-30.4-30.42c-1.06-1.06-2.47-1.64-3.96-1.64s-2.9.58-3.96 1.64L48.6 51.42c-1.06 1.06-1.64 2.47-1.64 3.96zm3.3-2.3L73.15 30.2c.6-.6 1.44-.96 2.3-.96s1.7.34 2.3.96l30.4 30.4c.6.6.96 1.44.96 2.3s-.34 1.7-.96 2.3L85.27 88.1c-.6.6-1.44.96-2.3.96s-1.7-.34-2.3-.96l-30.4-30.4c-.6-.6-.96-1.44-.96-2.3 0-.87.35-1.7.96-2.32zm72.44-18.25a1.24 1.24 0 0 1-.5-.1 53.83 53.83 0 0 0-18.71-3.33c-.02 0-.05.02-.06 0-.78 0-1.42-.64-1.42-1.42a1.42 1.42 0 0 1 1.42-1.42h.06a56.53 56.53 0 0 1 19.69 3.51c.73.27 1.1 1.1.84 1.82-.2.56-.74.93-1.32.94zm-10.36-9.97c-.08 0-.16-.01-.24-.02-5.72-.98-11.56-1.04-17.3-.18a1.41 1.41 0 0 1-1.6-1.17v-.03a1.41 1.41 0 0 1 1.17-1.6h.03c6.04-.9 12.18-.84 18.2.2.77.13 1.3.87 1.16 1.64-.12.68-.72 1.17-1.4 1.17l-.02-.01zm66.44 57.57c-.4-.5-1.04-.72-1.66-.6l-1.6.32 2.72-6.55c.24-.6.14-1.26-.26-1.75-.4-.5-1.04-.72-1.66-.6l-31.9 6.4c-.88.18-1.6.78-1.96 1.6l-1.4 3.4-7.7 1.26-.8-2.03c-.42-1.06-1.53-1.64-2.64-1.4l-11.2 2.45c-.77.17-1.4.7-1.73 1.4a2.47 2.47 0 0 0 .12 2.23l15.7 27.28c.05.27.17.53.34.75a1.64 1.64 0 0 0 1.3.6 1.84 1.84 0 0 0 .33-.03l32.1-6.45a2.47 2.47 0 0 0 1.79-1.47l10.4-25.08c.22-.6.13-1.25-.28-1.73zm-33.74.02l29.76-5.98-2.64 6.37-26.94 5.42c-.88.18-1.6.78-1.96 1.6l-6.23 15.02-.24.07 1.62-6.52 6.63-15.98zm21.04 25.57L136.33 114l9.54-23 29.76-5.98-9.54 23zM38 105.82c-.76 0-1.38-.6-1.4-1.35l-.04-.82c-.4-10.7 1.63-21.02 6.07-30.68a1.43 1.43 0 0 1 1.88-.7 1.43 1.43 0 0 1 .7 1.88c-4.25 9.25-6.2 19.14-5.8 29.4l.03.8a1.42 1.42 0 0 1-1.35 1.49h-.07l-.01-.02zm7.8-1.6c-.78 0-1.4-.63-1.42-1.4V102c.04-6.03.87-12 2.47-17.75a1.44 1.44 0 0 1 1.75-1 1.44 1.44 0 0 1 1 1.75c-1.54 5.54-2.33 11.25-2.36 17v.8c-.01.8-.64 1.42-1.43 1.43l-.01-.01z" fill="#557CF2"/><path d="M125.02 42.9l19.78-6.08c1.68-.52 3.47.43 4 2.1l8.27 26.97c.52 1.68-.43 3.47-2.1 4l-19.8 6.07c-1.68.52-3.47-.43-4-2.1l-8.3-26.95a3.21 3.21 0 0 1 2.12-4l.03-.01z" fill="#fff"/><path d="M122.27 44c-.5.92-.6 2-.28 3l8.4 27.3c.3 1 1 1.83 1.92 2.32.92.48 2 .6 3 .28l20.1-6.18c2.07-.64 3.24-2.85 2.6-4.92l-8.4-27.3c-.3-1-1-1.83-1.92-2.32a3.95 3.95 0 0 0-1.84-.46c-.4 0-.78.06-1.16.18l-20.1 6.18c-1 .3-1.83 1-2.32 1.92zm22.97-6.35c.2-.06.4-.1.62-.1.92 0 1.74.6 2 1.48l8.4 27.3a2.12 2.12 0 0 1-.15 1.6c-.26.5-.7.86-1.24 1.02l-20.1 6.18c-.2.06-.4.1-.62.1-.34 0-.68-.08-.98-.25-.5-.26-.86-.7-1.02-1.24l-8.4-27.3c-.34-1.1.28-2.28 1.4-2.62l20.08-6.17zm2.33 13.37c-.04 0-.08.01-.12.02l-15.92 4.9c-.22.07-.32.3-.36.42-.08.25-.07.57.02.87.18.6.63 1 1 .88l15.92-4.9c.37-.1.52-.7.34-1.3-.1-.3-.26-.57-.47-.73-.1-.07-.25-.17-.4-.16zm-16.68 2.7l15.92-4.9c.22-.07.32-.3.36-.42.08-.25.07-.57-.02-.87-.16-.52-.54-.9-.88-.9-.04 0-.08.01-.12.02l-15.92 4.9c-.36.1-.52.7-.34 1.3.1.3.26.57.47.73.1.1.3.22.53.15v-.01zm-1.32-4.37l15.92-4.9c.22-.07.32-.3.36-.42.08-.25.07-.57-.02-.87-.16-.52-.54-.9-.88-.9-.04 0-.08.01-.12.02l-15.92 4.9c-.37.1-.52.7-.34 1.3.1.3.26.57.47.73.1.1.3.22.53.15v-.01zm13.56 7.8a.5.5 0 0 0-.12.02l-10.17 3.13c-.22.07-.32.3-.36.42-.08.25-.07.57.02.87.18.6.63 1 1 .88l10.17-3.13c.37-.1.52-.7.34-1.3-.1-.3-.26-.57-.47-.73-.1-.07-.25-.17-.4-.16z" fill="#557CF2"/><path d="M58.17 55.28c-.01.4.15.78.43 1.07l16.42 16.8a1.43 1.43 0 0 0 1.06.45c.42-.01.78-.14 1.07-.42l16.38-15.82c.3-.28.45-.65.46-1.05s-.15-.78-.43-1.07l-16.43-16.8a1.54 1.54 0 0 0-1.08-.45c-.38 0-.76.14-1.05.42L58.62 54.23c-.3.27-.46.65-.45 1.05z" fill="#D9E2FF"/><path d="M95.15 54.1L78.33 36.9c-1.22-1.25-3.23-1.28-4.5-.07l-16.76 16.2c-.6.58-.95 1.38-.96 2.22s.3 1.64.9 2.24L73.83 74.7a3.23 3.23 0 0 0 2.23.96h.05c.83 0 1.6-.32 2.2-.9l16.78-16.2c.6-.58.95-1.38.96-2.22a3.15 3.15 0 0 0-.9-2.25v.01zm-1.95 3.2L91.46 59l-8.14-3.03c-.57-.2-1.2-.1-1.68.27-.48.37-.72.97-.63 1.57l.5 3.73-7.76-2.05c-.6-.16-1.22.01-1.66.45s-.6 1.06-.45 1.66l2.87 10.67L58.9 56.3c-.27-.28-.42-.66-.42-1.05a1.44 1.44 0 0 1 .45-1.03L75 38.7c.3-.28.66-.4 1.03-.4a1.5 1.5 0 0 1 1.06.44l16.1 16.5c.28.28.42.65.42 1.05a1.43 1.43 0 0 1-.44 1.03l.02-.01zM78.9 43.83c-.7-.7-1.63-1.12-2.64-1.13h-.06a3.72 3.72 0 0 0-2.6 1.05c-.72.7-1.12 1.63-1.14 2.62-.01 1 .36 1.94 1.06 2.65s1.63 1.12 2.64 1.13h.06a3.72 3.72 0 0 0 2.6-1.05c1.48-1.42 1.52-3.77.1-5.25-.01 0-.02-.01-.02-.02z" fill="#557CF2"/><path d="M166.1 108.02l9.54-23L145.87 91l-9.54 23 29.76-5.98z" fill="#D9E2FF"/><path d="M143.27 89.86c.34-.83 1.08-1.44 1.96-1.6l26.94-5.42 2.64-6.37-29.76 5.98-9.47 22.82 1.46-.4 6.23-15z" fill="#fff"/><path d="M68.47 136.06l-16.4 39.54 51-10.24a.31.31 0 0 0 .22-.18l16.47-39.72L69 135.66c-.23.04-.4.2-.5.4h-.02z" fill="#D9E2FF"/><path d="M51.74 163.26l2.6-.53 11.5-27.76a3.51 3.51 0 0 1 2.55-2.1l49.26-9.9 5.26-12.7c.15-.36-.16-.74-.55-.67l-52.5 10.56a2.12 2.12 0 0 0-1.52 1.25l-17.1 41.28c-.1.2.02.46.23.55.08.03.16.04.24.02h.02zm15.33-42.38a3.51 3.51 0 0 1 2.55-2.1l26.36-5.3-2.9-9.46a2.53 2.53 0 0 0-3.15-1.67l-36.6 11.26c-1.22.37-1.9 1.66-1.53 2.88l-7.56 19.45c-1.22.37-1.9 1.66-1.53 2.88l6.52 21.22c.18.58.56 1.05 1.03 1.36l16.8-40.52z" fill="#fff"/><path d="M123.97 108.9a1.92 1.92 0 0 0-1.85-.66l-24.74 4.97-2.95-9.6c-.3-1-1-1.83-1.92-2.32a3.87 3.87 0 0 0-3-.28l-36.6 11.26c-.73.22-1.35.66-1.82 1.24-.17.14-.32.32-.4.54l-3.47 8.44-22.44 5a3.11 3.11 0 0 0-2.2 1.8 3.13 3.13 0 0 0 .15 2.84l25.9 45.03c.04.35.18.68.4.95.35.43.88.67 1.42.67.12 0 .24-.01.36-.04l52.82-10.62a3.09 3.09 0 0 0 2.28-1.88l17.14-41.33c.27-.65.16-1.4-.3-1.94a1.92 1.92 0 0 0-1.85-.66l-1.55.3 4.9-11.8c.27-.63.16-1.38-.28-1.92l-.01.01zm-70.76 6.5c.1-.2.3-.36.52-.43l36.6-11.26a1.07 1.07 0 0 1 .84.08 1.12 1.12 0 0 1 .54.65l2.87 9.33-24.96 5.02a3.51 3.51 0 0 0-2.55 2.1l-16.23 39.18c-.1-.12-.2-.25-.24-.4l-6.53-21.24a.89.89 0 0 1 .06-.68c.1-.2.3-.36.52-.43l9.97-3.06a3.94 3.94 0 0 0 2.6-4.92l-4.07-13.24c-.07-.24-.05-.48.06-.7zm-1.86 4.48l3.16 10.27c.18.58-.15 1.2-.73 1.37l-8.26 2.54 5.83-14.18zm51.93 45.3a.31.31 0 0 1-.22.18l-51 10.25 16.4-39.53a.7.7 0 0 1 .49-.41l50.78-10.2-16.46 39.7zM116 123.3l-47.6 9.57a3.51 3.51 0 0 0-2.55 2.1L55 161.18l-.01-.03-1.7.34 16.4-39.53a.7.7 0 0 1 .49-.41l50.78-10.2L116 123.3h.02z" fill="#557CF2"/></svg>