<svg id="img-umblercoin-gold" xmlns="http://www.w3.org/2000/svg" viewBox="0 0 150 150"><circle cx="75" cy="75" r="75" fill="#f2c94e"/><circle cx="75" cy="75" r="61.21" fill="#bc7e3b"/><circle cx="75" cy="75" r="56.88" fill="#f2c94e"/><ellipse cx="40.32" cy="63.93" rx="10.12" ry="11" fill="#ffebc0"/><circle cx="40.72" cy="65.41" r="6.53" fill="#bc7e3b"/><circle cx="42.95" cy="62.47" r="2.23" fill="#ffebc0"/><ellipse cx="110.43" cy="63.93" rx="10.12" ry="11" fill="#ffebc0"/><circle cx="110.82" cy="65.41" r="6.53" fill="#bc7e3b"/><circle cx="113.06" cy="62.47" r="2.23" fill="#ffebc0"/><path d="M107,103.06c-5.25,2.63-10.7,5.21-16.44,6.61,9.38-7.47,10.4-21.19,8.73-32.18a66.51,66.51,0,0,0-5-17.59,29,29,0,0,0-7.7-10.62,17.91,17.91,0,0,0-20.34-1.49c-8.47,5.12-12,16-14,25.09-2.42,11.18-2.85,25,5.18,34.22a20.72,20.72,0,0,0,2.79,2.65,76.49,76.49,0,0,1-17.35-7,32.54,32.54,0,0,0,7.23,5.69A47.54,47.54,0,0,0,59.88,113a45.58,45.58,0,0,0,14,2.55,48.7,48.7,0,0,0,20.25-3.91,52.4,52.4,0,0,0,13.64-8.94Z" transform="translate(0 0)" fill="#bc7e3b"/><path d="M8.2,81.42" transform="translate(0 0)" fill="none" stroke="#819694" stroke-miterlimit="10"/><path d="M7.1,80.6a68.4,68.4,0,0,1,3.39-31.35A67.7,67.7,0,0,1,21,30.27C28,21.43,37,14,47.66,10.07A60.38,60.38,0,0,1,69.22,6.51a33.26,33.26,0,0,1,4,.36c.35,0,1.65.09.93.63a5.33,5.33,0,0,1-1.68.3c-3.59.6-7.12,1.38-10.63,2.32a85.72,85.72,0,0,0-22.29,9.82A65,65,0,0,0,18.29,40.39,68.14,68.14,0,0,0,7.58,77.2v2.4c0,.23.14.75,0,1S7.23,81,7.1,80.6Z" transform="translate(0 0)" fill="#ffebc0"/></svg>