<svg id="img-u-domain" xmlns="http://www.w3.org/2000/svg" viewBox="0 0 130.4 130.4"><path fill="#f26b7a" d="M96.5 10.5c-13.8 0-25 11.2-25 25 0 18.1 13.6 35 21.7 43.4 1 1 2 1.4 3.2 1.4 1.2 0 2.2-.5 3.2-1.4 8.1-8.4 21.7-25.3 21.7-43.4.2-13.8-11-25-24.8-25zm.4 58.7l-.4.4-.4-.4c-7.3-8.5-16-21.3-16-33.7 0-9 7.4-16.4 16.4-16.4s16.4 7.4 16.4 16.4c0 13.8-10 27-16 33.7z"/><circle cx="96.5" cy="35.9" r="7.7" fill="#f26b7a"/><path fill="#557cf2" d="M115.7 73.6c-1.2 7.6-4 14.3-8.4 20.3-4.8-2.8-23.1-14.7-57.3-8.7-.8-4.4-1.2-9.5-1.6-15.1h23.1c2 0 3.2-2.4 2-4-.8-1.2-1.2-2-2-3.6-1.2-1.6-2.8-2-3.6-2H48.5c0-5.6.8-10.3 1.6-15.1 3.6.8 7.6 1.2 11.5 1.2 1.6 0 2.8-1.6 2.8-3.2 0-1.2-.4-2.8-.8-4-.4-1.2-1.2-2-2.4-2-3.2 0-6-.4-8.7-.8 3.6-12.7 8.4-18.3 12.7-19.9 1.6-.4 2-.8 3.2-1.6C71.2 12 72 5.6 66 5.6 32.2 5.6 4.8 33.9 6.4 68.1 8 98.7 33 123.7 63.6 124.9c32.2 1.2 59.3-23.1 62-54.1.1-3.9-8.7-3.1-9.9 2.8zm-14.3 27.5c-5.2 5.2-11.9 9.1-19.1 11.5 2.8-4.4 5.2-10.3 6.8-16.7 4.4 1.6 8.3 3.2 12.3 5.2zm-35.4-8c4.8 0 9.5.4 13.9 1.2-3.6 12.7-9.1 20.3-13.9 20.3-4.4 0-10.3-7.2-13.9-20.3 4.8-.8 9.1-1.2 13.9-1.2zM50.1 113c-7.2-2.4-13.5-6.4-18.7-11.5 3.6-2 7.6-3.6 11.9-4.8 1.6 6 4 11.5 6.8 16.3zM41 87.2c-6 1.6-11.5 4-16.3 6.8-4.8-6.8-8-15.1-8.7-23.9h23c.4 5.5 1.2 11.5 2 17.1zm-1.6-26.7H15.9c.8-8.7 4-17.1 8.7-23.9 4.8 2.8 10.3 5.2 16.3 6.8-.7 5.6-1.5 11.5-1.5 17.1zM31 29.1c5.2-4.8 11.9-8.7 19.1-11.5-2.8 4.4-5.2 10.3-6.8 16.3-4.7-.8-8.7-2.8-12.3-4.8z"/></svg>