<svg id="img-umbler-favicon" xmlns="http://www.w3.org/2000/svg" viewBox="0 0 25 22"><path id="out" d="M23.49,4.49c-.7.3-1.3.5-2.1.8s-.6,1.29-.6,1.59a5.65,5.65,0,0,1,.1,1.29c0,5.07-3.8,9.15-8.39,9.15S4.11,13.25,4.11,8.17A9.57,9.57,0,0,1,5.21,3.7c.2-.5.7-.9.5-1.49s-.8-1-1.9-1.89A1.11,1.11,0,0,0,2,.71,15.69,15.69,0,0,0,0,8.17C-.29,15.93,5.7,22,12.5,22S25,15.83,25,8.17a8.55,8.55,0,0,0-.2-2.78A1.08,1.08,0,0,0,23.49,4.49Z" fill="#ffffff"/><path id="in" d="M17.89,9.77A5.59,5.59,0,0,0,17,9.65c-1.1,0-1.09-.08-1.39.51A3.44,3.44,0,0,1,12,12.25h0A3.41,3.41,0,0,1,9.3,9.17c-.1-.4-.19-.83-1.3-1-.2,0-.35-.06-.8-.1-1.1-.1-1.1.6-1.1.8a6.73,6.73,0,0,0,5.49,6.47h0a6.6,6.6,0,0,0,7.09-4.48C18.79,10.56,19,10,17.89,9.77Z" fill="#fca4ae"/></svg>