<svg id="img-u-mail" xmlns="http://www.w3.org/2000/svg" viewBox="0 0 130.4 130.4"><path fill="#557cf2" d="M120.8 11.3c0-1.6-1-3.2-2.5-4-1.5-.7-3.3-.6-4.7.4L41.4 59.8c-1.6 1.1-2.2 3-1.7 4.9.5 1.8 2.1 3.1 3.9 3.3l41.6 4.2 27.8 31.3c.7.7 1.7 1.3 2.7 1.5 2.5.3 4.8-1.5 5.1-4v-.5-89.2zM84.7 63.1l-28.5-2.9 47.5-34.3-19 37.2zm8 4.1l19-37.3v58.6l-19-21.3z"/><path fill="#f26b7a" d="M57.3 103.7c-13.3 0-24.6-9.3-27.3-22.3-.5-2.5 1.1-4.9 3.6-5.4.3-.1.6-.1.9-.1h.6c2.2 0 4 1.6 4.5 3.7 1.9 9.8 11.4 16.1 21.2 14.2 4.9-1 9.3-4 11.9-8.4 1.1-1.9 3.4-2.7 5.5-2l.5.3c2.3.7 3.6 3.2 2.9 5.5-.1.4-.3.7-.5 1.1-5 8.2-14 13.4-23.8 13.4z"/><path fill="#557cf2" d="M57.3 123.6c-26.4-.1-47.7-21.4-47.7-47.8 0-1.4.1-2.7.2-4.1.5-4.2 3.4-5.2 6.1-4.3 2.2.8 3.6 2.9 3.6 5.3 0 1-.2 2.1-.2 3.1.1 21.1 17.2 38 38.3 37.9 11.8-.1 23-5.6 30.1-15 1.6-1.9 4.2-2.4 6.3-1.1 2.3 1.3 3.1 4.2 1.7 6.5-.1.2-.2.3-.3.5-9 11.9-23.1 18.9-38.1 19z"/></svg>