<svg id="img-u-webapps" xmlns="http://www.w3.org/2000/svg" viewBox="0 0 130.4 130.4"><path fill="#557cf2" d="M127.2 72.3l-21.9 38.1c-1.3 2.4-4.3 3.2-6.7 1.9-2.4-1.3-3.2-4.3-1.9-6.7l22.1-38.2c.9-1.5.9-3.4 0-5L94.2 19.6c-.9-1.4-2.4-2.3-4.1-2.3H40.6c-1.8 0-3.4.9-4.3 2.4L11.6 62.5c-.8 1.5-.8 3.4 0 5l24.7 42.8c.9 1.6 2.5 2.6 4.3 2.7h43.7c2.7 0 4.9 2.2 4.9 4.9s-2.2 5-5 5H40.6c-5.3-.1-10.2-2.9-12.8-7.6l-24.7-43C.5 67.7.5 62.1 3.1 57.5l24.6-42.8c2.7-4.5 7.5-7.3 12.8-7.2h49.4c5.2 0 10 2.8 12.6 7.2l24.7 42.7c2.6 4.6 2.6 10.3 0 14.9z"/><path fill="#f26b7a" d="M52.8 93.9c-.8 0-1.5-.2-2.3-.5-2.4-1.2-3.4-4.1-2.1-6.5l24.8-47.1c1.2-2.4 4.2-3.2 6.6-2.1 2.4 1.2 3.4 4.1 2.1 6.5L57.1 91.3c-.8 1.7-2.6 2.6-4.3 2.6zM101.4 65.6v-.9c0-.1 0-.2-.1-.3 0-.2-.1-.3-.1-.5 0-.1-.1-.3-.2-.4 0-.1-.1-.1-.1-.2-.1-.2-.2-.4-.3-.5l-8.4-14c-.7-1.1-2.3-1.1-2.9.1L86.2 55c-.4.9-.4 1.9.1 2.7l4.6 7.7-.1.2-9.6 16c-1.4 2.3-.6 5.3 1.6 6.7.8.4 1.6.6 2.5.6 1.6 0 3.2-.9 4.2-2.4L100.6 68c.5-.7.7-1.5.8-2.4zM29 65.5v.9c0 .1 0 .2.1.3 0 .2.1.3.1.5 0 .1.1.3.2.4 0 .1.1.1.1.2.1.2.2.4.3.5l8.4 14c.7 1.1 2.3 1.1 2.9-.1l3.2-6.1c.4-.9.4-1.9-.1-2.7l-4.6-7.7.1-.2 9.6-16c1.4-2.3.6-5.3-1.6-6.7-.8-.4-1.6-.6-2.5-.6-1.6 0-3.2.9-4.2 2.4L29.8 63.1c-.5.7-.8 1.6-.8 2.4z"/></svg>