<svg id="node-js" xmlns="http://www.w3.org/2000/svg" viewBox="0 0 75 67.49"><g id="s" fill="#559355"><path d="M55.79,25.07V42.43a3.22,3.22,0,0,1-1.59,2.82L39.11,53.92a3.17,3.17,0,0,1-3.17,0l-5-3c-.75-.42-.38-.57-.13-.66a10.06,10.06,0,0,0,2.19-1,.37.37,0,0,1,.37,0l3.85,2.29a.46.46,0,0,0,.45,0l15-8.68a.42.42,0,0,0,.16-.4V25.07c0-.17,0-.33-.15-.41L37.77,16a.44.44,0,0,0-.44,0l-15,8.68a.43.43,0,0,0-.17.41V42.43c0,.19,0,.36.13.42l4,2.39c2.24,1.13,3.54-.19,3.54-1.52V26.52c0-.24.34-.48.58-.48h1.92a.44.44,0,0,1,.39.48V43.71c0,3-1.61,4.72-4.44,4.72a6.4,6.4,0,0,1-3.45-1l-4-2.28a3.21,3.21,0,0,1-1.61-2.76V25.07a3.21,3.21,0,0,1,1.61-2.8l15.09-8.73a3.3,3.3,0,0,1,3.17,0l15.08,8.73A3.21,3.21,0,0,1,55.79,25.07Z" transform="translate(0 0)"/><path d="M46.65,37.26c0-1-.38-1.69-5.32-2.17-4.13-.4-6.68-1.3-6.68-4.61,0-3,2.56-4.82,6.86-4.82,4.82,0,7.21,1.74,7.51,5.34a.74.74,0,0,1-.12.45c-.08.09-.19.37-.32.37H46.66c-.2,0-.42-.37-.42-.56-.47-2.09-1.61-3-4.7-3-3.44,0-3.85,1.21-3.85,2.12,0,1.08.53,1.43,5.16,2s6.83,1.48,6.83,4.76-2.7,5.22-7.51,5.22c-6.57,0-8-3-8-5.5,0-.28.19-.28.43-.28h1.94c.22,0,.43,0,.43.21.29,2,1.17,2.83,5.16,2.83C45.34,39.7,46.69,39,46.65,37.26Z" transform="translate(0 0)"/></g><path id="h" d="M73.84,38,61,60.28a2.88,2.88,0,0,1-3.9,1.09h0A2.9,2.9,0,0,1,56,57.42l0,0L68.88,35a2.84,2.84,0,0,0,0-2.89l-14.43-25a2.88,2.88,0,0,0-2.5-1.38H23.08a2.88,2.88,0,0,0-2.5,1.43l-14.43,25a3,3,0,0,0,0,2.89L20.58,60.15a3,3,0,0,0,2.5,1.56H48.69a2.89,2.89,0,0,1,2.89,2.89h0a2.89,2.89,0,0,1-2.89,2.89H23.08a8.75,8.75,0,0,1-7.49-4.43L1.16,37.94a8.7,8.7,0,0,1,0-8.68l14.43-25A8.6,8.6,0,0,1,23.08,0H52a8.6,8.6,0,0,1,7.47,4.28l14.43,25A8.8,8.8,0,0,1,73.84,38Z" transform="translate(0 0)" fill="#559355"/></svg>